<svg width="18" height="24" viewBox="0 0 18 24" xmlns="http://www.w3.org/2000/svg" xmlns:xlink="http://www.w3.org/1999/xlink">
    <defs>
        <linearGradient x1="64.403%" y1="87.8%" x2="44.012%" y2="24.08%" id="43c9pmlo6b">
            <stop stop-color="#0BD2C8" offset="0%"/>
            <stop stop-color="#0F38FC" offset="100%"/>
        </linearGradient>
        <path d="m11.7 9.275.253.042.225.068.225.097.197.11.197.151.14.124.127.151.113.152.126.22.084.206.07.234.043.262v.344l-.07.358-.113.302-.112.207-.14.192-.17.18-.098.096-.211.151-.281.179-.38.248-.267.179-.253.178-.268.193-.182.138-.197.151-.394.33-.225.207-.14.137-.127.152-.113.151-.112.193-.056.192-.014.11v.345l.042.206.084.193.14.192.198.193.225.165.267.165.295.165.478.248.366.179.267.138.956.468.268.137.45.234.365.193.253.137.352.193.394.22.337.193.633.371.253.166.155.123.197.193.14.179.113.179.126.261.085.262.042.22.028.275v.482l-.028.206-.07.18-.113.22-.098.15-.183.22-.169.166-.183.138-.21.124-.268.123-.295.083-.225.041-.127.014h-.253l-.239-.028-.295-.068-.225-.083-.225-.11-.338-.193-.408-.234-.351-.206-.31-.179-.365-.22-.324-.193-.337-.206-.267-.165-.62-.386-.463-.302-.225-.138-.605-.4-.436-.288-.225-.151-.323-.22-.352-.235-.281-.192-.183-.138-.197-.151-.14-.124-.113-.096-.14-.124-.338-.33-.098-.11-.17-.193-.154-.193-.21-.275-.141-.207-.113-.192-.183-.372-.154-.385-.113-.358-.07-.33-.056-.44-.014-.29v-.247l.028-.386.056-.357.084-.344.113-.33.154-.331.127-.22.14-.207.155-.192.464-.496.211-.22.043-.014v-.027L6.792 12l.169-.138.267-.179.281-.178.268-.166.323-.22.31-.206.28-.193.718-.481.281-.193.267-.179.324-.22.225-.138.225-.11.267-.082.253-.042h.45zM16.017 0l.267.041.296.083.21.082.226.124.197.138.168.151.14.138.142.179.14.234.084.192.07.207.043.289v.413l-.042.234-.07.234L17.76 3l-.098.151-.141.18-.197.206-.155.124-.14.096-.211.124-.408.234-.352.206-.548.317-.352.206-.717.413-.45.261-.351.207-1.547.894-.408.234-.563.33-.21.138-.45.29-.465.302-.239.151-.618.4-.38.247-.619.4-.604.398-.62.4-.604.398-.21.138-.479.33-.295.22-.225.18-.113.11h-.028l-.028.054-.113.11-.14.18-.225.33-.169.275-.169.303-.154.302-.183.44-.169.482-.14.523-.085.44-.056.372-.042.482-.014.592-.029.137-.056.11-.126.138-.127.083-.14.055-.07.013h-.142l-.154-.04-.14-.097-.198-.18-.112-.095-.169-.152-.14-.124-.17-.151-.224-.193-.127-.151-.197-.262L.788 15l-.183-.317-.183-.371-.127-.33-.098-.29-.099-.412-.07-.454L0 12.468v-.303l.028-.358.056-.399.099-.413.112-.357.127-.33.183-.386.168-.303.211-.316.17-.234.14-.165.112-.097.24-.192.224-.165.197-.152.45-.33.253-.179.268-.193 1.012-.715.24-.165.196-.138.717-.495.324-.22.239-.166.225-.151.28-.193.62-.413.225-.151.59-.385.338-.207.45-.261.183-.11.393-.234.282-.165.393-.234.45-.262.394-.234.211-.124.394-.234.281-.165.394-.234.45-.261.365-.22.985-.578.393-.234.633-.372.225-.11.225-.082.31-.07.098-.013h.464zm-.084 6.564.295.042.211.055.183.068.225.11.183.124.182.152.127.124.14.178.113.18.099.192.098.289.056.275v.413l-.07.344-.098.275-.127.234-.14.193-.127.138-.183.178-.225.152-.267.137-.281.097-.197.041-.282.028h-.154l-.282-.028-.239-.055-.28-.11-.212-.11-.168-.124-.197-.165-.127-.138-.14-.192-.127-.22-.085-.22-.056-.18-.042-.234v-.44l.042-.248.085-.261.098-.207.084-.151.141-.193.211-.22.155-.124.21-.137.296-.138.295-.082.31-.042h.267z" id="0tx7yg236a"/>
    </defs>
    <g fill="none" fill-rule="evenodd">
        <mask id="fvsthxugkc" fill="#fff">
            <use xlink:href="#0tx7yg236a"/>
        </mask>
        <use fill="url(#43c9pmlo6b)" xlink:href="#0tx7yg236a"/>
        <g fill-rule="nonzero" opacity=".7" style="mix-blend-mode:overlay" mask="url(#fvsthxugkc)">
            <path fill="none" d="M-4.425 19.266-6.502-.492l33.974-3.571 2.076 19.758-33.973 3.571"/>
            <g fill="#FFF">
                <path d="M18.986 12.486a.947.947 0 0 1 .001-.199c.093-.75.921-1.17 1.88-1.654.137-.07.279-.14.42-.215 1.062-.537 2.294-1.276 2.402-2.237.088-.817-.65-1.028-1.431-1.251-.11-.032-.225-.064-.335-.099-.884-.25-1.672-.619-1.457-1.624.189-.883.934-1.501 1.798-2.217.108-.09.219-.181.33-.275 1.022-.854 1.98-1.8 2.061-2.935.067-1.046-.642-1.352-1.393-1.675a18.913 18.913 0 0 1-.253-.11c-.82-.353-1.706-.853-1.803-2.331-.106-1.443.645-2.41 1.563-3.435l.132-.15c.803-.916 1.633-1.863 1.454-3.358l.283-.03.006.054c.155 1.48-.672 2.423-1.473 3.336l-.132.151c-.91 1.017-1.655 1.974-1.55 3.403.096 1.455.959 1.944 1.76 2.288l.253.11c.774.333 1.506.648 1.436 1.722-.082 1.152-1.05 2.11-2.085 2.974-.111.094-.223.186-.33.275-.853.707-1.59 1.317-1.775 2.184-.208.97.545 1.324 1.389 1.562l.003.001c.109.034.222.066.332.097.783.224 1.592.456 1.5 1.31-.111.989-1.374 1.747-2.462 2.297-.142.074-.284.146-.422.216-.966.488-1.729.874-1.818 1.593-.088.825.918 1.267 2.017 1.623.127.044.256.086.381.128 1.015.334 2.065.68 2.171 1.523.12.966-1.068 1.548-2.023 2.015l-.021.01c-.97.486-1.807.904-1.39 1.898.432.986 1.638 1.5 3.051 2.027l.167.062c1.26.474 2.45.922 3.014 1.989l-.28.041c-.554-1.046-1.725-1.487-2.966-1.954l-.166-.063c-.638-.237-1.308-.496-1.866-.823-.625-.366-1.03-.772-1.235-1.24a1.414 1.414 0 0 1-.108-.398c-.08-.757.688-1.141 1.56-1.577l.021-.01c.974-.477 2.077-1.016 1.96-1.947-.103-.812-1.079-1.134-2.112-1.475a38.49 38.49 0 0 1-.382-.127c-1.04-.337-2-.75-2.077-1.48"/>
                <path d="M16.709 12.425a1.004 1.004 0 0 1 .007-.257c.128-.748.915-1.074 1.826-1.45l.335-.14c1.013-.417 2.068-.961 2.232-1.846.14-.78-.493-1.096-1.164-1.43a16.12 16.12 0 0 1-.271-.138c-.615-.303-1.171-.674-1.238-1.308a1.444 1.444 0 0 1 .04-.497c.209-.855.915-1.362 1.733-1.949.098-.07.2-.143.3-.217.888-.644 1.845-1.431 1.956-2.62.06-1.122-.674-1.554-1.451-2.012-.824-.485-1.756-1.034-1.908-2.478a3.802 3.802 0 0 1-.014-.134c-.146-1.395.515-2.291 1.394-3.315l.09-.107c.773-.927 1.572-1.886 1.285-3.543l.283-.032c.29 1.674-.517 2.64-1.297 3.576l-.09.108c-.871 1.015-1.526 1.903-1.381 3.284l.005.05c.123 1.487 1.06 2.04 1.888 2.526.792.467 1.54.908 1.48 2.053-.051.54-.278 1.041-.695 1.531-.379.446-.866.823-1.293 1.133l-.301.217c-.804.577-1.497 1.075-1.701 1.91-.228.927.424 1.392 1.163 1.756.09.047.182.093.27.137.662.33 1.346.67 1.2 1.478-.17.918-1.267 1.483-2.316 1.915l-.337.14c-.868.36-1.618.67-1.74 1.38-.125.809.755 1.328 1.725 1.768l.36.166c.879.402 1.787.818 1.898 1.616l.005.043c.093.885-.883 1.36-1.745 1.78l-.024.01c-.844.422-1.643.821-1.204 1.876.46 1.056 1.698 1.632 3.034 2.177l.258.106c1.236.509 2.403.989 3.119 2.081l-.278.045c-.704-1.076-1.857-1.55-3.078-2.052l-.258-.107c-1.3-.53-2.609-1.137-3.077-2.211-.456-1.094.38-1.511 1.266-1.953l.025-.012c.884-.43 1.798-.875 1.674-1.752-.107-.775-.958-1.164-1.858-1.576-.118-.054-.241-.11-.36-.167-.886-.402-1.7-.87-1.772-1.559"/>
                <path d="M14.662 12.183c-.01-.103-.006-.21.015-.32.163-.765.969-1.034 1.821-1.318l.244-.082h.002c.898-.296 1.874-.683 2.088-1.538.187-.76-.377-1.165-.974-1.594a19.175 19.175 0 0 1-.2-.144c-.627-.445-1.276-.999-1.031-1.936.214-.831.929-1.266 1.686-1.726l.266-.163c.835-.515 1.735-1.162 1.85-2.325.068-1.156-.683-1.676-1.478-2.227-.816-.566-1.741-1.207-1.94-2.63a3.54 3.54 0 0 1-.031-.231c-.143-1.353.59-2.232 1.241-3.013l.058-.072c.737-.915 1.498-1.862 1.088-3.617l.283-.033c.414 1.771-.355 2.726-1.099 3.65l-.058.073c-.85 1.02-1.434 1.847-1.198 3.211.195 1.408 1.11 2.042 1.917 2.6.807.56 1.569 1.088 1.5 2.265-.117 1.188-1.039 1.85-1.894 2.377l-.267.163c-.77.468-1.434.872-1.642 1.68-.24.916.396 1.458 1.011 1.894l.2.144c.61.438 1.187.851.994 1.635-.1.399-.369.732-.823 1.02-.416.262-.931.449-1.381.596l-.245.083c-.833.277-1.552.517-1.705 1.238-.156.799.618 1.381 1.478 1.892.104.064.212.128.316.19.772.46 1.57.935 1.672 1.721l.005.04c.09.86-.726 1.27-1.516 1.667l-.064.032c-.741.384-1.51.782-1.074 1.913.457 1.133 1.714 1.778 2.962 2.341l.312.142c1.157.526 2.354 1.07 3.162 2.22l-.277.046c-.798-1.137-1.93-1.65-3.128-2.195l-.312-.142c-1.263-.57-2.535-1.223-3-2.374-.2-.522-.171-.922.094-1.262.229-.293.59-.494 1.039-.726l.066-.034c.769-.386 1.564-.786 1.448-1.637-.1-.767-.85-1.214-1.644-1.688-.105-.062-.213-.126-.317-.19-.758-.45-1.45-.956-1.52-1.616"/>
                <path d="M13.274 18.732c-.035-.331.033-.614.203-.857.22-.311.568-.522.97-.746l.092-.05c.716-.387 1.392-.753 1.303-1.594v-.012l-.001-.002c-.083-.785-.79-1.306-1.476-1.81a33.32 33.32 0 0 1-.255-.188c-.728-.536-1.49-1.178-1.298-2.031.194-.8 1.001-1.02 1.856-1.254l.148-.04c.907-.242 1.739-.524 1.978-1.316.226-.757-.303-1.238-.864-1.747l-.125-.115c-.605-.543-1.176-1.146-.949-2.017.209-.814.916-1.172 1.664-1.55l.227-.116c.831-.428 1.651-.94 1.75-2.06.086-1.144-.701-1.73-1.535-2.35l-.017-.012c-.847-.628-1.723-1.277-2.026-2.629a3.268 3.268 0 0 1-.07-.406c-.124-1.175.503-1.938 1.11-2.678l.033-.041c.7-.886 1.423-1.803.882-3.6l.281-.036c.245.81.25 1.52.02 2.17-.206.573-.564 1.027-.91 1.466l-.033.041c-.668.814-1.359 1.655-1.03 3.051.3 1.338 1.167 1.98 2.006 2.603l.017.013c.808.6 1.643 1.22 1.556 2.384-.102 1.149-.95 1.678-1.811 2.12l-.229.117c-.752.38-1.401.71-1.602 1.495-.223.853.315 1.424.935 1.98.042.04.084.077.125.115.57.519 1.11 1.008.877 1.785-.254.839-1.19 1.153-2.126 1.403l-.147.04c-.82.223-1.527.416-1.708 1.164-.188.833.561 1.465 1.279 1.992l.254.188c.694.51 1.412 1.038 1.496 1.84l.002.013c.091.874-.646 1.273-1.359 1.658l-.091.05c-.666.371-1.421.794-1.012 2.008.43 1.21 1.644 1.901 2.85 2.506l.329.165c1.132.57 2.303 1.158 3.158 2.392l-.277.045c-.846-1.22-2.007-1.804-3.129-2.368l-.328-.166c-1.22-.611-2.449-1.311-2.884-2.538a2.216 2.216 0 0 1-.11-.475"/>
                <path d="M11.28 18.652c-.04-.378.028-.7.207-.978.216-.336.562-.567.927-.794l.109-.065c.665-.4 1.293-.777 1.223-1.646-.058-.831-.718-1.398-1.356-1.946a32.93 32.93 0 0 1-.179-.155c-.694-.596-1.355-1.248-1.15-2.095.22-.85 1.084-1.056 1.92-1.255l.05-.012c.766-.179 1.631-.381 1.902-1.177.252-.783-.296-1.344-.876-1.938-.577-.59-1.172-1.201-.952-2.057.166-.794.927-1.113 1.663-1.422.86-.361 1.75-.734 1.855-1.912C16.676.14 15.952-.485 15-1.19l-.116-.086c-.851-.63-1.731-1.283-2.093-2.521a2.933 2.933 0 0 1-.114-.545c-.105-1.005.438-1.665 1.01-2.357l.01-.014c.636-.806 1.356-1.72.683-3.514l.281-.037c.68 1.812-.048 2.736-.691 3.55l-.012.015c-.66.801-1.283 1.558-.886 2.866.359 1.226 1.231 1.872 2.075 2.498l.116.086c.964.714 1.697 1.346 1.644 2.424-.109 1.217-1.04 1.607-1.94 1.985-.73.306-1.42.596-1.58 1.355-.216.839.373 1.441.942 2.024.588.602 1.143 1.171.885 1.974-.126.372-.39.655-.809.867-.364.184-.786.29-1.261.401l-.049.012c-.796.19-1.547.369-1.752 1.161-.2.829.423 1.447 1.136 2.059l.179.154c.645.554 1.312 1.127 1.371 1.974.073.897-.58 1.288-1.27 1.703l-.106.064c-.61.379-1.371.852-1.004 2.148.383 1.278 1.55 2.012 2.711 2.655l.312.173c1.107.614 2.251 1.248 3.118 2.583l-.278.044c-.859-1.322-1.994-1.952-3.092-2.56a64.51 64.51 0 0 1-.312-.174c-1.174-.65-2.353-1.392-2.741-2.686a2.63 2.63 0 0 1-.088-.439"/>
                <path d="M9.358 18.648c-.109-1.032.452-1.524 1.138-2.005l.115-.078c.637-.433 1.24-.841 1.2-1.743-.03-.9-.67-1.503-1.288-2.085l-.093-.088c-.705-.663-1.271-1.28-1.066-2.124.241-.913 1.146-1.125 2.02-1.33.79-.186 1.536-.36 1.799-1.106.28-.798-.287-1.39-.888-2.015-.567-.591-1.154-1.203-.982-2.01.144-.798.925-1.076 1.681-1.345.84-.298 1.709-.607 1.764-1.708.013-1.044-.825-1.719-1.76-2.374l-.21-.147c-.874-.613-1.778-1.247-2.19-2.379a2.518 2.518 0 0 1-.152-.622c-.092-.87.404-1.456.923-2.07l.017-.02c.608-.754 1.298-1.61.5-3.362l.28-.04c.807 1.772.108 2.638-.509 3.403l-.017.02c-.652.773-1.216 1.44-.76 2.654.407 1.119 1.303 1.747 2.17 2.355l.21.148c.946.663 1.794 1.347 1.781 2.408-.057 1.146-.98 1.474-1.87 1.791-.74.263-1.44.511-1.575 1.268-.169.79.41 1.394.971 1.979.582.606 1.184 1.233.897 2.05-.282.802-1.14 1.003-1.968 1.197-.835.196-1.623.38-1.85 1.237-.201.825.358 1.434 1.053 2.088l.094.088c.625.589 1.271 1.197 1.301 2.111.04.927-.58 1.348-1.236 1.794l-.114.077c-.603.423-1.355.95-1.04 2.32.325 1.332 1.395 2.072 2.557 2.774l.27.164c1.08.654 2.199 1.331 3.048 2.777l-.279.043c-.842-1.434-1.952-2.106-3.026-2.756l-.27-.164c-1.173-.71-2.254-1.457-2.583-2.805-.03-.13-.051-.254-.063-.37"/>
                <path d="M7.481 18.771c-.054-.517.03-.96.253-1.347.23-.396.566-.68.92-.96l.116-.09c.63-.486 1.227-.944 1.218-1.89.02-.965-.625-1.581-1.248-2.177-.653-.623-1.269-1.212-1.078-2.139.247-.975 1.173-1.223 2.068-1.464.773-.207 1.503-.403 1.752-1.12.27-.767-.271-1.37-.898-1.971l-.135-.13c-.481-.463-.976-.94-1.04-1.538a1.241 1.241 0 0 1 .01-.332c.13-.824.982-1.095 1.804-1.357l.062-.02c.777-.254 1.582-.516 1.567-1.52-.035-1.02-.975-1.701-1.935-2.312a52.045 52.045 0 0 0-.293-.187c-.915-.582-1.86-1.184-2.309-2.222a2.175 2.175 0 0 1-.184-.653c-.08-.761.383-1.282.867-1.828l.045-.05c.588-.694 1.257-1.481.35-3.164l.28-.042c.404.751.532 1.392.39 1.96-.13.518-.474.923-.75 1.249l-.045.05c-.601.678-1.169 1.317-.672 2.439.443 1.025 1.38 1.621 2.286 2.198l.293.187c.972.62 1.925 1.31 1.96 2.348.007.46-.16.815-.513 1.081-.333.253-.8.405-1.175.528l-.064.02c-.801.256-1.558.497-1.68 1.274-.122.742.431 1.274 1.016 1.838l.135.13c.637.61 1.186 1.223.909 2.01-.266.766-1.097.99-1.9 1.205-.867.232-1.685.452-1.919 1.374-.187.908.422 1.49 1.066 2.105.63.602 1.282 1.225 1.261 2.204.01.967-.6 1.436-1.246 1.933l-.116.089c-.747.592-1.347 1.19-1.11 2.508.266 1.366 1.246 2.098 2.403 2.85l.207.135c1.058.688 2.151 1.4 2.959 2.96l-.28.042c-.802-1.549-1.887-2.256-2.938-2.94l-.207-.135c-1.169-.759-2.158-1.499-2.426-2.88a3.359 3.359 0 0 1-.036-.249"/>
                <path d="M5.614 19.012c-.147-1.403.65-2.109 1.235-2.628l.114-.099c.67-.579 1.248-1.079 1.267-2.072.059-1.046-.606-1.637-1.248-2.208-.64-.569-1.244-1.106-1.086-2.035.202-.957 1.125-1.34 1.973-1.623l.232-.078c.767-.256 1.428-.476 1.664-1.178.264-.801-.388-1.413-1.02-1.924a26.91 26.91 0 0 0-.22-.18c-.607-.492-1.236-1.002-1.16-1.738.086-.854 1.059-1.155 1.917-1.422l.015-.005c.835-.267 1.624-.52 1.562-1.451l-.002-.025c-.103-.975-1.157-1.641-2.14-2.19-.119-.068-.241-.136-.36-.202-.97-.542-1.975-1.103-2.446-2.068-.527-1.06.05-1.66.659-2.297l.072-.075c.556-.605 1.248-1.359.258-2.95l.278-.045c1.005 1.615.299 2.383-.268 3l-.073.076c-.597.623-1.162 1.212-.645 2.25.463.952 1.457 1.507 2.419 2.043l.36.202c1.003.56 2.084 1.244 2.171 2.252.03.444-.123.771-.48 1.028-.323.232-.771.376-1.205.514l-.018.006c-.842.262-1.71.531-1.79 1.336-.075.717.517 1.197 1.143 1.705l.22.18c.642.519 1.305 1.142 1.034 1.964-.25.745-.992.992-1.778 1.254a33.76 33.76 0 0 0-.23.077c-.836.28-1.666.628-1.86 1.544-.154.91.442 1.439 1.072 2 .65.578 1.323 1.175 1.263 2.237-.019 1.012-.636 1.546-1.29 2.11l-.113.099c-.767.68-1.386 1.352-1.198 2.703.207 1.37 1.105 2.08 2.257 2.865l.13.088c1.038.71 2.111 1.445 2.857 3.115l-.28.04c-.741-1.659-1.807-2.388-2.838-3.094l-.13-.088c-1.163-.792-2.07-1.509-2.28-2.895l-.014-.118"/>
                <path d="M3.726 19.368c-.067-.639.042-1.204.333-1.728.256-.46.611-.826.984-1.19l.11-.105c.696-.667 1.297-1.243 1.336-2.284.05-1.084-.587-1.647-1.243-2.13l-.16-.122c-.526-.392-1.027-.766-1.094-1.404-.013-.124-.01-.26.013-.406.16-.964 1.06-1.472 2.01-1.876.102-.045.206-.089.306-.131.773-.327 1.441-.61 1.648-1.31.229-.799-.448-1.354-1.214-1.836-.1-.064-.201-.129-.3-.19-.685-.432-1.393-.878-1.365-1.613.03-.829.964-1.205 2-1.547l.093-.031C8.07 1.163 8.836.902 8.73.03 8.592-.925 7.434-1.55 6.36-2.06c-.133-.065-.269-.13-.4-.192-1.046-.498-2.127-1.014-2.6-1.93-.524-.995.075-1.56.71-2.157l.1-.094c.568-.557 1.277-1.251.236-2.74l.277-.046c.46.657.624 1.215.502 1.705-.107.431-.416.762-.751 1.09l-.1.095c-.62.583-1.206 1.135-.695 2.106.465.9 1.533 1.409 2.566 1.901l.4.192C7.696-1.612 8.872-.977 9.013.001l.002.022c.095.902-.759 1.193-1.662 1.5l-.097.034c-1.013.334-1.854.674-1.882 1.46-.028.714.636 1.133 1.339 1.575l.3.191c.782.492 1.473 1.06 1.238 1.881-.217.736-.952 1.047-1.73 1.376-.1.042-.202.085-.304.13-.91.388-1.774.875-1.929 1.807-.138.879.444 1.313 1.06 1.774l.162.12c.666.491 1.312 1.063 1.262 2.165-.04 1.057-.678 1.67-1.354 2.317l-.11.105c-.794.777-1.44 1.53-1.299 2.88l.002.011c.17 1.445 1.17 2.137 2.135 2.805l.039.027c1.027.714 2.09 1.452 2.76 3.22l-.281.037c-.665-1.755-1.72-2.487-2.74-3.196l-.039-.027c-.975-.675-1.984-1.374-2.157-2.836l-.002-.01"/>
                <path d="m1.789 19.822-.002-.023c-.122-1.347.567-2.198 1.41-3.093l.105-.11c.704-.735 1.368-1.43 1.416-2.511.06-1.153-.652-1.639-1.324-2.004a16.779 16.779 0 0 0-.236-.13c-.647-.354-1.315-.72-1.227-1.626.107-1.015 1.105-1.678 2.067-2.193l.371-.199c.8-.424 1.492-.79 1.66-1.503.19-.833-.598-1.313-1.48-1.708-.121-.057-.246-.113-.367-.168-.772-.346-1.568-.704-1.642-1.411a1.047 1.047 0 0 1-.006-.08c-.024-.88 1.085-1.369 2.127-1.757l.174-.067C5.76.885 6.56.58 6.415-.247c-.181-.927-1.442-1.495-2.609-1.955l-.41-.164C2.259-2.817 1.083-3.284.63-4.179c-.49-.954.192-1.524.851-2.075l.128-.107c.738-.64 1.27-1.273.304-2.55l.276-.047c.46.608.62 1.124.487 1.58-.12.408-.45.72-.807 1.03l-.129.107C1.07-5.678.434-5.147.91-4.22c.443.877 1.601 1.336 2.72 1.78l.411.165C5.23-1.808 6.512-1.229 6.7-.279c.069.397-.065.706-.419.972-.32.24-.775.414-1.258.599l-.174.067h-.003c-1.038.388-2.05.836-2.027 1.677.02.734.79 1.08 1.606 1.447.121.055.247.111.369.169.86.385 1.716.896 1.52 1.758-.176.742-.89 1.12-1.718 1.559l-.369.197c-.937.501-1.908 1.147-2.012 2.135-.086.882.537 1.222 1.196 1.583l.236.131c.687.373 1.416.87 1.356 2.045-.05 1.097-.721 1.799-1.432 2.542l-.104.11c-.68.72-1.526 1.618-1.396 3.058l.002.022c.142 1.351 1.036 1.953 1.982 2.59l.066.045c.951.64 2.03 1.366 2.614 3.206l-.282.036c-.58-1.826-1.649-2.546-2.592-3.181l-.066-.044c-.957-.645-1.861-1.254-2.005-2.622"/>
                <path d="M-.222 20.422c-.124-1.388.775-2.407 1.497-3.226l.098-.112c.748-.84 1.454-1.634 1.498-2.746.047-1.078-.557-1.501-1.477-1.805h-.003c-.1-.037-.206-.071-.308-.105-.732-.242-1.489-.493-1.468-1.412.03-1.06 1.16-1.93 2.142-2.57.143-.096.286-.188.424-.277.849-.548 1.581-1.021 1.703-1.76.135-.866-.792-1.252-1.813-1.54h-.003c-.137-.042-.28-.083-.418-.123-.947-.27-1.927-.55-2.011-1.35a.625.625 0 0 1-.002-.017C-.439 2.477.7 1.856 1.943 1.319l.255-.113C3.228.754 4.041.396 3.87-.408c-.214-.905-1.584-1.41-2.853-1.813l-.388-.126C-.616-2.75-1.903-3.164-2.305-4.07a1.33 1.33 0 0 1-.113-.402c-.075-.713.577-1.196 1.21-1.665l.153-.114C-.223-6.885.341-7.464-.58-8.65l.276-.047c.438.563.573 1.044.411 1.47-.147.39-.529.705-.907.993l-.154.114c-.726.539-1.476 1.095-1.07 2.01.392.882 1.598 1.27 2.875 1.683l.388.126c1.294.41 2.694.927 2.914 1.859.18.845-.714 1.238-1.749 1.692l-.256.113c-1.2.52-2.3 1.118-2.227 1.986l.002.017c.08.766.985 1.024 1.942 1.298.139.04.282.08.42.123.67.188 1.103.37 1.406.588.384.276.54.607.477 1.012-.126.762-.875 1.246-1.743 1.806-.138.089-.28.181-.423.276-.964.628-2.073 1.482-2.103 2.52-.02.887.674 1.116 1.41 1.36.102.033.207.068.31.105.356.117.803.292 1.111.601.31.311.448.722.425 1.256-.044 1.127-.756 1.928-1.51 2.776l-.1.11C.83 18.01-.06 19.022.061 20.394c.148 1.266.948 1.755 1.875 2.322.998.61 2.13 1.301 2.587 3.152l-.283.034c-.452-1.834-1.572-2.519-2.56-3.122-.901-.551-1.752-1.071-1.902-2.357"/>
                <path d="M-5.528-4.078c-.035-.337.081-.657.352-.97.298-.345.74-.639 1.166-.922l.174-.116c.93-.629 1.577-1.197.76-2.301l.277-.047c.839 1.135.17 1.722-.791 2.371a61.24 61.24 0 0 1-.174.116c-.85.565-1.727 1.148-1.427 2.088.298.924 1.616 1.26 3.012 1.616l.336.086c1.472.365 2.93.799 3.167 1.727C1.522.412.556.9-.562 1.465l-.338.172c-1.349.675-2.58 1.429-2.482 2.367l.004.026c.117.847 1.252 1.01 2.35 1.169.149.021.303.043.451.067 1.25.172 2.398.462 2.329 1.404-.067.798-.873 1.413-1.806 2.125-.151.116-.308.235-.464.358-1.062.817-2.272 1.891-2.203 2.96.064.89.858.989 1.699 1.092.126.016.257.032.385.05.415.052.937.144 1.303.407.357.257.526.645.516 1.188-.02 1.138-.778 2.044-1.582 3.003l-.094.113c-.75.898-1.682 2.015-1.55 3.265l.002.019c.126 1.08.87 1.449 1.73 1.877l.306.155c.926.466 1.945 1.106 2.317 2.818l-.282.033C1.66 24.44.657 23.809-.254 23.35a24.588 24.588 0 0 0-.306-.154c-.841-.419-1.636-.814-1.765-1.916l-.002-.019c-.133-1.266.806-2.391 1.562-3.297l.094-.112C.126 16.9.879 16 .899 14.876c.022-1.158-.802-1.418-1.695-1.528h-.006c-.122-.019-.251-.035-.376-.05-.85-.105-1.728-.213-1.822-1.109a1.686 1.686 0 0 1-.004-.048c-.07-1.088 1.155-2.178 2.23-3.005.157-.123.314-.243.466-.358.918-.701 1.712-1.307 1.776-2.084.066-.898-1.023-1.173-2.21-1.337h-.004l-.447-.067c-1.153-.166-2.345-.337-2.469-1.23-.059-.457.185-.906.749-1.373.51-.423 1.192-.787 1.792-1.088l.338-.172C.342.86 1.231.41 1.042-.396c-.23-.898-1.653-1.321-3.09-1.677l-.336-.087c-1.367-.348-2.78-.708-3.09-1.663a1.27 1.27 0 0 1-.054-.255"/>
                <path d="M-8.91-3.457c-.106-1.012 1-1.684 1.976-2.279l.182-.111c1.099-.674 1.827-1.231 1.182-2.28l.278-.043c.314.51.327.937.042 1.345-.261.374-.746.69-1.263 1.006l-.183.111c-.97.591-2.07 1.26-1.924 2.272.157 1.007 1.595 1.287 3.118 1.584a105 105 0 0 1 .26.05c1.661.31 3.174.667 3.409 1.614.092.397-.068.762-.503 1.148-.391.347-.976.683-1.595 1.04l-.418.24c-1.477.847-2.964 1.853-2.79 2.905.166.94 1.517.972 2.824 1.004.15.003.307.007.459.012.675.01 1.44.046 2.002.227.569.183.85.491.856.943.004.847-.88 1.622-1.904 2.52l-.493.436c-1.175 1.037-2.5 2.367-2.307 3.45.165.89 1.087.833 2.063.773.148-.009.302-.018.451-.024 1.138-.072 2.195.029 2.226 1.24.028 1.13-.78 2.142-1.634 3.215l-.092.115c-.792.992-1.776 2.226-1.58 3.316.159.87.856 1.1 1.664 1.366.152.05.309.102.465.16.945.328 1.952.875 2.239 2.435l-.283.032c-.282-1.535-1.263-2.07-2.185-2.39-.154-.057-.31-.109-.46-.158-.801-.265-1.56-.515-1.723-1.413-.2-1.105.793-2.35 1.59-3.348l.092-.115c.85-1.065 1.652-2.072 1.624-3.188-.013-.524-.214-.864-.613-1.04-.305-.133-.712-.173-1.36-.131h-.01c-.143.006-.286.015-.438.024-.518.032-1.053.065-1.49-.036-.485-.112-.749-.367-.83-.8a1.2 1.2 0 0 1-.011-.086c-.114-1.086 1.184-2.388 2.34-3.408.167-.15.334-.296.494-.437 1.012-.887 1.886-1.654 1.881-2.48-.015-.977-1.384-1.08-2.667-1.1h-.006c-.15-.006-.305-.01-.455-.013-.684-.017-1.39-.034-1.954-.173-.633-.157-.979-.45-1.057-.896a1.193 1.193 0 0 1-.009-.062c-.111-1.057 1.373-2.06 2.847-2.905l.418-.242c1.253-.72 2.242-1.29 2.05-2.123-.227-.911-1.696-1.257-3.312-1.558l-.261-.051c-1.5-.292-3.052-.594-3.215-1.64a1.469 1.469 0 0 1-.007-.053"/>
            </g>
        </g>
    </g>
</svg>
